<?xml version="1.0" encoding="UTF-8"?>
<svg xmlns="http://www.w3.org/2000/svg" xmlns:xlink="http://www.w3.org/1999/xlink" width="375pt" height="374.999991pt" viewBox="0 0 375 374.999991" version="1.2">
<defs>
<clipPath id="clip1">
  <path d="M 109 230 L 226 230 L 226 275 L 109 275 Z M 109 230 "/>
</clipPath>
<clipPath id="clip2">
  <path d="M 94.332031 228.285156 L 296.648438 178.863281 L 310.351562 234.960938 L 108.035156 284.382812 Z M 94.332031 228.285156 "/>
</clipPath>
<clipPath id="clip3">
  <path d="M 94.332031 228.285156 L 296.648438 178.863281 L 310.351562 234.960938 L 108.035156 284.382812 Z M 94.332031 228.285156 "/>
</clipPath>
<clipPath id="clip4">
  <path d="M 108.953125 259.035156 L 224.589844 230.789062 L 230.390625 254.535156 L 114.753906 282.78125 Z M 108.953125 259.035156 "/>
</clipPath>
<clipPath id="clip5">
  <path d="M 108.953125 259.035156 L 224.589844 230.789062 L 230.382812 254.503906 L 114.746094 282.75 Z M 108.953125 259.035156 "/>
</clipPath>
<clipPath id="clip6">
  <path d="M 109 181 L 297 181 L 297 263 L 109 263 Z M 109 181 "/>
</clipPath>
<clipPath id="clip7">
  <path d="M 94.332031 228.285156 L 296.648438 178.863281 L 310.351562 234.960938 L 108.035156 284.382812 Z M 94.332031 228.285156 "/>
</clipPath>
<clipPath id="clip8">
  <path d="M 94.332031 228.285156 L 296.648438 178.863281 L 310.351562 234.960938 L 108.035156 284.382812 Z M 94.332031 228.285156 "/>
</clipPath>
<clipPath id="clip9">
  <path d="M 224 185 L 297 185 L 297 235 L 224 235 Z M 224 185 "/>
</clipPath>
<clipPath id="clip10">
  <path d="M 94.332031 228.285156 L 296.648438 178.863281 L 310.351562 234.960938 L 108.035156 284.382812 Z M 94.332031 228.285156 "/>
</clipPath>
<clipPath id="clip11">
  <path d="M 94.332031 228.285156 L 296.648438 178.863281 L 310.351562 234.960938 L 108.035156 284.382812 Z M 94.332031 228.285156 "/>
</clipPath>
<clipPath id="clip12">
  <path d="M 284 182 L 293 182 L 293 187 L 284 187 Z M 284 182 "/>
</clipPath>
<clipPath id="clip13">
  <path d="M 94.332031 228.285156 L 296.648438 178.863281 L 310.351562 234.960938 L 108.035156 284.382812 Z M 94.332031 228.285156 "/>
</clipPath>
<clipPath id="clip14">
  <path d="M 94.332031 228.285156 L 296.648438 178.863281 L 310.351562 234.960938 L 108.035156 284.382812 Z M 94.332031 228.285156 "/>
</clipPath>
<clipPath id="clip15">
  <path d="M 127 237 L 212 237 L 212 260 L 127 260 Z M 127 237 "/>
</clipPath>
<clipPath id="clip16">
  <path d="M 94.332031 228.285156 L 296.648438 178.863281 L 310.351562 234.960938 L 108.035156 284.382812 Z M 94.332031 228.285156 "/>
</clipPath>
<clipPath id="clip17">
  <path d="M 94.332031 228.285156 L 296.648438 178.863281 L 310.351562 234.960938 L 108.035156 284.382812 Z M 94.332031 228.285156 "/>
</clipPath>
<clipPath id="clip18">
  <path d="M 209 223 L 223 223 L 223 231 L 209 231 Z M 209 223 "/>
</clipPath>
<clipPath id="clip19">
  <path d="M 94.332031 228.285156 L 296.648438 178.863281 L 310.351562 234.960938 L 108.035156 284.382812 Z M 94.332031 228.285156 "/>
</clipPath>
<clipPath id="clip20">
  <path d="M 94.332031 228.285156 L 296.648438 178.863281 L 310.351562 234.960938 L 108.035156 284.382812 Z M 94.332031 228.285156 "/>
</clipPath>
<clipPath id="clip21">
  <path d="M 224 186 L 276 186 L 276 222 L 224 222 Z M 224 186 "/>
</clipPath>
<clipPath id="clip22">
  <path d="M 94.332031 228.285156 L 296.648438 178.863281 L 310.351562 234.960938 L 108.035156 284.382812 Z M 94.332031 228.285156 "/>
</clipPath>
<clipPath id="clip23">
  <path d="M 94.332031 228.285156 L 296.648438 178.863281 L 310.351562 234.960938 L 108.035156 284.382812 Z M 94.332031 228.285156 "/>
</clipPath>
<clipPath id="clip24">
  <path d="M 277 184 L 282 184 L 282 186 L 277 186 Z M 277 184 "/>
</clipPath>
<clipPath id="clip25">
  <path d="M 94.332031 228.285156 L 296.648438 178.863281 L 310.351562 234.960938 L 108.035156 284.382812 Z M 94.332031 228.285156 "/>
</clipPath>
<clipPath id="clip26">
  <path d="M 94.332031 228.285156 L 296.648438 178.863281 L 310.351562 234.960938 L 108.035156 284.382812 Z M 94.332031 228.285156 "/>
</clipPath>
<clipPath id="clip27">
  <path d="M 110 234 L 226 234 L 226 265 L 110 265 Z M 110 234 "/>
</clipPath>
<clipPath id="clip28">
  <path d="M 94.332031 228.285156 L 296.648438 178.863281 L 310.351562 234.960938 L 108.035156 284.382812 Z M 94.332031 228.285156 "/>
</clipPath>
<clipPath id="clip29">
  <path d="M 94.332031 228.285156 L 296.648438 178.863281 L 310.351562 234.960938 L 108.035156 284.382812 Z M 94.332031 228.285156 "/>
</clipPath>
<clipPath id="clip30">
  <path d="M 153 268 L 155 268 L 155 270 L 153 270 Z M 153 268 "/>
</clipPath>
<clipPath id="clip31">
  <path d="M 94.332031 228.285156 L 296.648438 178.863281 L 310.351562 234.960938 L 108.035156 284.382812 Z M 94.332031 228.285156 "/>
</clipPath>
<clipPath id="clip32">
  <path d="M 94.332031 228.285156 L 296.648438 178.863281 L 310.351562 234.960938 L 108.035156 284.382812 Z M 94.332031 228.285156 "/>
</clipPath>
<clipPath id="clip33">
  <path d="M 142 271 L 144 271 L 144 273 L 142 273 Z M 142 271 "/>
</clipPath>
<clipPath id="clip34">
  <path d="M 94.332031 228.285156 L 296.648438 178.863281 L 310.351562 234.960938 L 108.035156 284.382812 Z M 94.332031 228.285156 "/>
</clipPath>
<clipPath id="clip35">
  <path d="M 94.332031 228.285156 L 296.648438 178.863281 L 310.351562 234.960938 L 108.035156 284.382812 Z M 94.332031 228.285156 "/>
</clipPath>
<clipPath id="clip36">
  <path d="M 131 272 L 132 272 L 132 273 L 131 273 Z M 131 272 "/>
</clipPath>
<clipPath id="clip37">
  <path d="M 94.332031 228.285156 L 296.648438 178.863281 L 310.351562 234.960938 L 108.035156 284.382812 Z M 94.332031 228.285156 "/>
</clipPath>
<clipPath id="clip38">
  <path d="M 94.332031 228.285156 L 296.648438 178.863281 L 310.351562 234.960938 L 108.035156 284.382812 Z M 94.332031 228.285156 "/>
</clipPath>
<clipPath id="clip39">
  <path d="M 124 271 L 126 271 L 126 273 L 124 273 Z M 124 271 "/>
</clipPath>
<clipPath id="clip40">
  <path d="M 94.332031 228.285156 L 296.648438 178.863281 L 310.351562 234.960938 L 108.035156 284.382812 Z M 94.332031 228.285156 "/>
</clipPath>
<clipPath id="clip41">
  <path d="M 94.332031 228.285156 L 296.648438 178.863281 L 310.351562 234.960938 L 108.035156 284.382812 Z M 94.332031 228.285156 "/>
</clipPath>
<clipPath id="clip42">
  <path d="M 121 267 L 123 267 L 123 269 L 121 269 Z M 121 267 "/>
</clipPath>
<clipPath id="clip43">
  <path d="M 94.332031 228.285156 L 296.648438 178.863281 L 310.351562 234.960938 L 108.035156 284.382812 Z M 94.332031 228.285156 "/>
</clipPath>
<clipPath id="clip44">
  <path d="M 94.332031 228.285156 L 296.648438 178.863281 L 310.351562 234.960938 L 108.035156 284.382812 Z M 94.332031 228.285156 "/>
</clipPath>
<clipPath id="clip45">
  <path d="M 126 270 L 127 270 L 127 272 L 126 272 Z M 126 270 "/>
</clipPath>
<clipPath id="clip46">
  <path d="M 94.332031 228.285156 L 296.648438 178.863281 L 310.351562 234.960938 L 108.035156 284.382812 Z M 94.332031 228.285156 "/>
</clipPath>
<clipPath id="clip47">
  <path d="M 94.332031 228.285156 L 296.648438 178.863281 L 310.351562 234.960938 L 108.035156 284.382812 Z M 94.332031 228.285156 "/>
</clipPath>
<clipPath id="clip48">
  <path d="M 127 269 L 130 269 L 130 271 L 127 271 Z M 127 269 "/>
</clipPath>
<clipPath id="clip49">
  <path d="M 94.332031 228.285156 L 296.648438 178.863281 L 310.351562 234.960938 L 108.035156 284.382812 Z M 94.332031 228.285156 "/>
</clipPath>
<clipPath id="clip50">
  <path d="M 94.332031 228.285156 L 296.648438 178.863281 L 310.351562 234.960938 L 108.035156 284.382812 Z M 94.332031 228.285156 "/>
</clipPath>
<clipPath id="clip51">
  <path d="M 135 270 L 137 270 L 137 271 L 135 271 Z M 135 270 "/>
</clipPath>
<clipPath id="clip52">
  <path d="M 94.332031 228.285156 L 296.648438 178.863281 L 310.351562 234.960938 L 108.035156 284.382812 Z M 94.332031 228.285156 "/>
</clipPath>
<clipPath id="clip53">
  <path d="M 94.332031 228.285156 L 296.648438 178.863281 L 310.351562 234.960938 L 108.035156 284.382812 Z M 94.332031 228.285156 "/>
</clipPath>
<clipPath id="clip54">
  <path d="M 130 266 L 132 266 L 132 268 L 130 268 Z M 130 266 "/>
</clipPath>
<clipPath id="clip55">
  <path d="M 94.332031 228.285156 L 296.648438 178.863281 L 310.351562 234.960938 L 108.035156 284.382812 Z M 94.332031 228.285156 "/>
</clipPath>
<clipPath id="clip56">
  <path d="M 94.332031 228.285156 L 296.648438 178.863281 L 310.351562 234.960938 L 108.035156 284.382812 Z M 94.332031 228.285156 "/>
</clipPath>
<clipPath id="clip57">
  <path d="M 116 267 L 118 267 L 118 269 L 116 269 Z M 116 267 "/>
</clipPath>
<clipPath id="clip58">
  <path d="M 94.332031 228.285156 L 296.648438 178.863281 L 310.351562 234.960938 L 108.035156 284.382812 Z M 94.332031 228.285156 "/>
</clipPath>
<clipPath id="clip59">
  <path d="M 94.332031 228.285156 L 296.648438 178.863281 L 310.351562 234.960938 L 108.035156 284.382812 Z M 94.332031 228.285156 "/>
</clipPath>
<clipPath id="clip60">
  <path d="M 213 245 L 214 245 L 214 247 L 213 247 Z M 213 245 "/>
</clipPath>
<clipPath id="clip61">
  <path d="M 94.332031 228.285156 L 296.648438 178.863281 L 310.351562 234.960938 L 108.035156 284.382812 Z M 94.332031 228.285156 "/>
</clipPath>
<clipPath id="clip62">
  <path d="M 94.332031 228.285156 L 296.648438 178.863281 L 310.351562 234.960938 L 108.035156 284.382812 Z M 94.332031 228.285156 "/>
</clipPath>
<clipPath id="clip63">
  <path d="M 208 249 L 210 249 L 210 251 L 208 251 Z M 208 249 "/>
</clipPath>
<clipPath id="clip64">
  <path d="M 94.332031 228.285156 L 296.648438 178.863281 L 310.351562 234.960938 L 108.035156 284.382812 Z M 94.332031 228.285156 "/>
</clipPath>
<clipPath id="clip65">
  <path d="M 94.332031 228.285156 L 296.648438 178.863281 L 310.351562 234.960938 L 108.035156 284.382812 Z M 94.332031 228.285156 "/>
</clipPath>
<clipPath id="clip66">
  <path d="M 203 251 L 205 251 L 205 253 L 203 253 Z M 203 251 "/>
</clipPath>
<clipPath id="clip67">
  <path d="M 94.332031 228.285156 L 296.648438 178.863281 L 310.351562 234.960938 L 108.035156 284.382812 Z M 94.332031 228.285156 "/>
</clipPath>
<clipPath id="clip68">
  <path d="M 94.332031 228.285156 L 296.648438 178.863281 L 310.351562 234.960938 L 108.035156 284.382812 Z M 94.332031 228.285156 "/>
</clipPath>
<clipPath id="clip69">
  <path d="M 197 252 L 199 252 L 199 254 L 197 254 Z M 197 252 "/>
</clipPath>
<clipPath id="clip70">
  <path d="M 94.332031 228.285156 L 296.648438 178.863281 L 310.351562 234.960938 L 108.035156 284.382812 Z M 94.332031 228.285156 "/>
</clipPath>
<clipPath id="clip71">
  <path d="M 94.332031 228.285156 L 296.648438 178.863281 L 310.351562 234.960938 L 108.035156 284.382812 Z M 94.332031 228.285156 "/>
</clipPath>
<clipPath id="clip72">
  <path d="M 193 258 L 195 258 L 195 259 L 193 259 Z M 193 258 "/>
</clipPath>
<clipPath id="clip73">
  <path d="M 94.332031 228.285156 L 296.648438 178.863281 L 310.351562 234.960938 L 108.035156 284.382812 Z M 94.332031 228.285156 "/>
</clipPath>
<clipPath id="clip74">
  <path d="M 94.332031 228.285156 L 296.648438 178.863281 L 310.351562 234.960938 L 108.035156 284.382812 Z M 94.332031 228.285156 "/>
</clipPath>
<clipPath id="clip75">
  <path d="M 188 261 L 190 261 L 190 263 L 188 263 Z M 188 261 "/>
</clipPath>
<clipPath id="clip76">
  <path d="M 94.332031 228.285156 L 296.648438 178.863281 L 310.351562 234.960938 L 108.035156 284.382812 Z M 94.332031 228.285156 "/>
</clipPath>
<clipPath id="clip77">
  <path d="M 94.332031 228.285156 L 296.648438 178.863281 L 310.351562 234.960938 L 108.035156 284.382812 Z M 94.332031 228.285156 "/>
</clipPath>
<clipPath id="clip78">
  <path d="M 208 252 L 210 252 L 210 253 L 208 253 Z M 208 252 "/>
</clipPath>
<clipPath id="clip79">
  <path d="M 94.332031 228.285156 L 296.648438 178.863281 L 310.351562 234.960938 L 108.035156 284.382812 Z M 94.332031 228.285156 "/>
</clipPath>
<clipPath id="clip80">
  <path d="M 94.332031 228.285156 L 296.648438 178.863281 L 310.351562 234.960938 L 108.035156 284.382812 Z M 94.332031 228.285156 "/>
</clipPath>
<clipPath id="clip81">
  <path d="M 212 248 L 214 248 L 214 250 L 212 250 Z M 212 248 "/>
</clipPath>
<clipPath id="clip82">
  <path d="M 94.332031 228.285156 L 296.648438 178.863281 L 310.351562 234.960938 L 108.035156 284.382812 Z M 94.332031 228.285156 "/>
</clipPath>
<clipPath id="clip83">
  <path d="M 94.332031 228.285156 L 296.648438 178.863281 L 310.351562 234.960938 L 108.035156 284.382812 Z M 94.332031 228.285156 "/>
</clipPath>
<clipPath id="clip84">
  <path d="M 216 247 L 218 247 L 218 248 L 216 248 Z M 216 247 "/>
</clipPath>
<clipPath id="clip85">
  <path d="M 94.332031 228.285156 L 296.648438 178.863281 L 310.351562 234.960938 L 108.035156 284.382812 Z M 94.332031 228.285156 "/>
</clipPath>
<clipPath id="clip86">
  <path d="M 94.332031 228.285156 L 296.648438 178.863281 L 310.351562 234.960938 L 108.035156 284.382812 Z M 94.332031 228.285156 "/>
</clipPath>
<clipPath id="clip87">
  <path d="M 216 244 L 218 244 L 218 246 L 216 246 Z M 216 244 "/>
</clipPath>
<clipPath id="clip88">
  <path d="M 94.332031 228.285156 L 296.648438 178.863281 L 310.351562 234.960938 L 108.035156 284.382812 Z M 94.332031 228.285156 "/>
</clipPath>
<clipPath id="clip89">
  <path d="M 94.332031 228.285156 L 296.648438 178.863281 L 310.351562 234.960938 L 108.035156 284.382812 Z M 94.332031 228.285156 "/>
</clipPath>
<clipPath id="clip90">
  <path d="M 201 256 L 202 256 L 202 258 L 201 258 Z M 201 256 "/>
</clipPath>
<clipPath id="clip91">
  <path d="M 94.332031 228.285156 L 296.648438 178.863281 L 310.351562 234.960938 L 108.035156 284.382812 Z M 94.332031 228.285156 "/>
</clipPath>
<clipPath id="clip92">
  <path d="M 94.332031 228.285156 L 296.648438 178.863281 L 310.351562 234.960938 L 108.035156 284.382812 Z M 94.332031 228.285156 "/>
</clipPath>
<clipPath id="clip93">
  <path d="M 198 257 L 200 257 L 200 259 L 198 259 Z M 198 257 "/>
</clipPath>
<clipPath id="clip94">
  <path d="M 94.332031 228.285156 L 296.648438 178.863281 L 310.351562 234.960938 L 108.035156 284.382812 Z M 94.332031 228.285156 "/>
</clipPath>
<clipPath id="clip95">
  <path d="M 94.332031 228.285156 L 296.648438 178.863281 L 310.351562 234.960938 L 108.035156 284.382812 Z M 94.332031 228.285156 "/>
</clipPath>
<clipPath id="clip96">
  <path d="M 129 173 L 182 173 L 182 254 L 129 254 Z M 129 173 "/>
</clipPath>
<clipPath id="clip97">
  <path d="M 64.585938 120.863281 L 191.730469 90.835938 L 226.328125 237.328125 L 99.183594 267.355469 Z M 64.585938 120.863281 "/>
</clipPath>
<clipPath id="clip98">
  <path d="M 64.585938 120.863281 L 191.730469 90.835938 L 226.328125 237.328125 L 99.183594 267.355469 Z M 64.585938 120.863281 "/>
</clipPath>
<clipPath id="clip99">
  <path d="M 107 105 L 207 105 L 207 254 L 107 254 Z M 107 105 "/>
</clipPath>
<clipPath id="clip100">
  <path d="M 64.585938 120.863281 L 191.730469 90.835938 L 226.328125 237.328125 L 99.183594 267.355469 Z M 64.585938 120.863281 "/>
</clipPath>
<clipPath id="clip101">
  <path d="M 64.585938 120.863281 L 191.730469 90.835938 L 226.328125 237.328125 L 99.183594 267.355469 Z M 64.585938 120.863281 "/>
</clipPath>
</defs>
<g id="surface1">
<g clip-path="url(#clip1)" clip-rule="nonzero">
<g clip-path="url(#clip2)" clip-rule="nonzero">
<g clip-path="url(#clip3)" clip-rule="nonzero">
<g clip-path="url(#clip4)" clip-rule="nonzero">
<g clip-path="url(#clip5)" clip-rule="nonzero">
<path style=" stroke:none;fill-rule:nonzero;fill:rgb(100%,50.979614%,34.509277%);fill-opacity:1;" d="M 206.816406 235.296875 L 109.15625 259.863281 C 112.652344 271.566406 130.488281 275.753906 145.453125 273.957031 C 163.34375 271.746094 178.910156 267.210938 196.191406 260.769531 C 207.742188 256.53125 220.789062 252.285156 224.171875 241.539062 C 225.117188 238.53125 225.304688 235.015625 224.492188 230.847656 L 206.816406 235.296875 "/>
</g>
</g>
</g>
</g>
</g>
<g clip-path="url(#clip6)" clip-rule="nonzero">
<g clip-path="url(#clip7)" clip-rule="nonzero">
<g clip-path="url(#clip8)" clip-rule="nonzero">
<path style=" stroke:none;fill-rule:nonzero;fill:rgb(93.728638%,83.139038%,76.469421%);fill-opacity:1;" d="M 291.742188 184.730469 C 291.152344 186.679688 285.128906 186.765625 284.785156 184.558594 L 285.15625 185.046875 C 286.195312 183.875 292.605469 181.988281 291.742188 184.730469 Z M 292.902344 182.316406 C 288.613281 181.453125 284.171875 181.90625 279.804688 183.070312 C 273.746094 184.679688 267.839844 187.648438 262.71875 190.335938 C 259.984375 191.773438 257.308594 193.339844 254.714844 195.019531 C 242.277344 203.070312 230.585938 211.972656 220.992188 223.363281 C 219.027344 225.695312 216.632812 229.523438 213.082031 228.4375 C 204.878906 226.617188 195.613281 228.929688 187.179688 230.128906 C 171.65625 232.667969 155.714844 236.925781 140.886719 242.023438 C 131.4375 245.355469 120.039062 248.96875 112.300781 255.046875 C 103.128906 262.660156 116.011719 262.488281 121.941406 262.308594 C 148.3125 261.546875 175.234375 255.398438 200.160156 246.875 C 202.363281 245.972656 224.695312 236.808594 224.472656 230.878906 C 224.476562 230.855469 224.480469 230.828125 224.480469 230.800781 C 224.5625 229.335938 243.828125 214.699219 254.730469 208.484375 C 259.804688 205.589844 266.191406 202.101562 271.339844 199.339844 C 278.082031 195.71875 282.710938 195.664062 288.15625 193.742188 C 290.550781 192.894531 293.492188 191.835938 294.984375 189.625 C 297.3125 186.1875 297.296875 183.207031 292.902344 182.316406 "/>
</g>
</g>
</g>
<g clip-path="url(#clip9)" clip-rule="nonzero">
<g clip-path="url(#clip10)" clip-rule="nonzero">
<g clip-path="url(#clip11)" clip-rule="nonzero">
<path style=" stroke:none;fill-rule:nonzero;fill:rgb(92.939758%,76.078796%,61.178589%);fill-opacity:1;" d="M 296.535156 185.28125 C 296.84375 187.464844 296.828125 189.632812 295.554688 191.277344 C 290.539062 197.761719 275.445312 200.644531 267.847656 204.402344 C 258.621094 209.074219 250.054688 215.179688 241.441406 220.984375 C 238.242188 223.117188 234.925781 225.273438 231.699219 227.410156 C 229.039062 229.171875 225.074219 231.371094 224.933594 234.035156 C 224.855469 233.019531 224.710938 231.957031 224.496094 230.851562 L 224.476562 230.855469 C 224.476562 230.835938 224.480469 230.820312 224.480469 230.800781 C 224.566406 229.335938 243.828125 214.699219 254.730469 208.484375 C 259.804688 205.589844 266.191406 202.101562 271.339844 199.335938 C 278.082031 195.71875 282.710938 195.664062 288.15625 193.742188 C 290.550781 192.894531 293.492188 191.835938 294.984375 189.625 C 296.066406 188.023438 296.644531 186.523438 296.507812 185.285156 C 296.515625 185.289062 296.527344 185.285156 296.535156 185.28125 "/>
</g>
</g>
</g>
<g clip-path="url(#clip12)" clip-rule="nonzero">
<g clip-path="url(#clip13)" clip-rule="nonzero">
<g clip-path="url(#clip14)" clip-rule="nonzero">
<path style=" stroke:none;fill-rule:nonzero;fill:rgb(92.939758%,76.078796%,61.178589%);fill-opacity:1;" d="M 291.929688 184.476562 C 291.332031 185.972656 286.984375 186.203125 285.472656 185.023438 C 286.867188 184.148438 292.382812 182.675781 291.929688 184.476562 Z M 292.621094 184.859375 C 292.65625 184.820312 292.683594 184.769531 292.699219 184.703125 C 292.722656 184.648438 292.730469 184.59375 292.726562 184.546875 C 293.3125 181.441406 286.921875 183.117188 285.039062 184.34375 C 284.984375 184.277344 284.933594 184.207031 284.878906 184.136719 C 284.628906 183.804688 284.117188 184.148438 284.203125 184.511719 C 284.875 187.273438 291.40625 187.199219 292.621094 184.859375 "/>
</g>
</g>
</g>
<g clip-path="url(#clip15)" clip-rule="nonzero">
<g clip-path="url(#clip16)" clip-rule="nonzero">
<g clip-path="url(#clip17)" clip-rule="nonzero">
<path style=" stroke:none;fill-rule:nonzero;fill:rgb(92.939758%,76.078796%,61.178589%);fill-opacity:1;" d="M 211.542969 237.125 C 197.113281 238.140625 182.925781 239.761719 168.851562 243.226562 C 161.527344 245.03125 154.34375 247.273438 147.324219 250.027344 C 143.703125 251.449219 140.152344 253.035156 136.652344 254.722656 C 133.730469 256.128906 130.398438 257.402344 127.984375 259.628906 C 127.847656 259.753906 128.015625 259.980469 128.175781 259.890625 C 141.035156 252.738281 154.761719 247.519531 169.03125 243.972656 C 176.226562 242.183594 183.527344 240.824219 190.871094 239.828125 C 197.765625 238.890625 204.742188 238.800781 211.625 237.917969 C 212.074219 237.859375 211.992188 237.09375 211.542969 237.125 "/>
</g>
</g>
</g>
<g clip-path="url(#clip18)" clip-rule="nonzero">
<g clip-path="url(#clip19)" clip-rule="nonzero">
<g clip-path="url(#clip20)" clip-rule="nonzero">
<path style=" stroke:none;fill-rule:nonzero;fill:rgb(96.078491%,91.369629%,91.369629%);fill-opacity:1;" d="M 222.296875 223.625 C 220.269531 225.390625 218.910156 227.449219 216.453125 228.75 C 214.203125 229.9375 212.085938 228.796875 209.789062 229.222656 C 209.488281 229.277344 209.570312 229.695312 209.839844 229.722656 C 212.351562 230.003906 214.457031 230.535156 216.847656 229.464844 C 219.1875 228.417969 221.617188 226.191406 222.65625 223.84375 C 222.75 223.628906 222.441406 223.5 222.296875 223.625 "/>
</g>
</g>
</g>
<g clip-path="url(#clip21)" clip-rule="nonzero">
<g clip-path="url(#clip22)" clip-rule="nonzero">
<g clip-path="url(#clip23)" clip-rule="nonzero">
<path style=" stroke:none;fill-rule:nonzero;fill:rgb(96.078491%,91.369629%,91.369629%);fill-opacity:1;" d="M 275.496094 186.015625 C 270.601562 186.910156 266.140625 189.910156 262.105469 192.667969 C 257.589844 195.761719 252.804688 198.511719 248.386719 201.726562 C 240.207031 207.675781 231.328125 213.320312 224.726562 221.105469 C 224.5625 221.300781 224.816406 221.582031 225.003906 221.398438 C 232.226562 214.144531 240.601562 208.507812 248.785156 202.445312 C 252.820312 199.453125 257.277344 197.027344 261.402344 194.148438 C 265.953125 190.972656 270.441406 188.554688 275.644531 186.625 C 276.015625 186.488281 275.902344 185.941406 275.496094 186.015625 "/>
</g>
</g>
</g>
<g clip-path="url(#clip24)" clip-rule="nonzero">
<g clip-path="url(#clip25)" clip-rule="nonzero">
<g clip-path="url(#clip26)" clip-rule="nonzero">
<path style=" stroke:none;fill-rule:nonzero;fill:rgb(96.078491%,91.369629%,91.369629%);fill-opacity:1;" d="M 280.964844 184.640625 C 280.316406 184.59375 279.644531 184.800781 279.011719 184.929688 C 278.367188 185.058594 277.726562 185.175781 277.140625 185.484375 C 277.007812 185.554688 277.0625 185.765625 277.210938 185.765625 C 277.867188 185.78125 278.515625 185.648438 279.160156 185.542969 C 279.796875 185.4375 280.496094 185.375 281.0625 185.039062 C 281.246094 184.929688 281.171875 184.65625 280.964844 184.640625 "/>
</g>
</g>
</g>
<g clip-path="url(#clip27)" clip-rule="nonzero">
<g clip-path="url(#clip28)" clip-rule="nonzero">
<g clip-path="url(#clip29)" clip-rule="nonzero">
<path style=" stroke:none;fill-rule:nonzero;fill:rgb(100%,50.979614%,34.509277%);fill-opacity:1;" d="M 224.757812 234.363281 C 222.25 236.519531 219.644531 238.445312 216.945312 240.1875 C 216.820312 240.171875 216.683594 240.226562 216.617188 240.339844 C 216.601562 240.363281 216.59375 240.390625 216.585938 240.417969 C 211.199219 243.859375 205.429688 246.566406 199.253906 248.796875 C 189.621094 252.277344 179.570312 254.613281 169.648438 257.101562 C 158.65625 259.855469 147.546875 262.277344 136.253906 263.386719 C 131.746094 263.832031 127.214844 264.160156 122.683594 264.164062 C 118.542969 264.164062 114.054688 263.941406 110.234375 262.175781 C 110.074219 262.101562 109.929688 262.320312 110.089844 262.414062 C 113.300781 264.300781 117.195312 264.609375 120.832031 264.777344 C 125.46875 264.996094 130.132812 264.648438 134.75 264.273438 C 146.363281 263.324219 157.804688 260.8125 169.09375 258.019531 C 179.484375 255.445312 189.984375 252.945312 200.066406 249.304688 C 208.953125 246.09375 218.582031 241.796875 225.160156 234.777344 C 225.414062 234.507812 225.039062 234.125 224.757812 234.363281 "/>
</g>
</g>
</g>
<g clip-path="url(#clip30)" clip-rule="nonzero">
<g clip-path="url(#clip31)" clip-rule="nonzero">
<g clip-path="url(#clip32)" clip-rule="nonzero">
<path style=" stroke:none;fill-rule:nonzero;fill:rgb(100%,50.979614%,34.509277%);fill-opacity:1;" d="M 153.902344 268.703125 C 153.839844 268.804688 153.820312 268.917969 153.847656 269.035156 C 153.878906 269.164062 153.949219 269.257812 154.050781 269.316406 C 154.152344 269.378906 154.265625 269.398438 154.382812 269.371094 C 154.496094 269.34375 154.601562 269.269531 154.660156 269.167969 C 154.722656 269.066406 154.742188 268.953125 154.710938 268.824219 C 154.683594 268.707031 154.613281 268.617188 154.511719 268.554688 C 154.3125 268.433594 154.023438 268.503906 153.902344 268.703125 "/>
</g>
</g>
</g>
<g clip-path="url(#clip33)" clip-rule="nonzero">
<g clip-path="url(#clip34)" clip-rule="nonzero">
<g clip-path="url(#clip35)" clip-rule="nonzero">
<path style=" stroke:none;fill-rule:nonzero;fill:rgb(100%,50.979614%,34.509277%);fill-opacity:1;" d="M 142.710938 272.058594 C 142.636719 272.175781 142.613281 272.3125 142.644531 272.449219 C 142.683594 272.601562 142.769531 272.710938 142.886719 272.78125 C 143.007812 272.855469 143.144531 272.882812 143.277344 272.847656 C 143.417969 272.8125 143.539062 272.726562 143.609375 272.605469 C 143.683594 272.488281 143.707031 272.351562 143.671875 272.199219 C 143.636719 272.0625 143.554688 271.953125 143.433594 271.878906 C 143.195312 271.734375 142.855469 271.820312 142.710938 272.058594 "/>
</g>
</g>
</g>
<g clip-path="url(#clip36)" clip-rule="nonzero">
<g clip-path="url(#clip37)" clip-rule="nonzero">
<g clip-path="url(#clip38)" clip-rule="nonzero">
<path style=" stroke:none;fill-rule:nonzero;fill:rgb(100%,50.979614%,34.509277%);fill-opacity:1;" d="M 131.15625 272.324219 C 131.109375 272.40625 131.089844 272.5 131.113281 272.589844 C 131.136719 272.695312 131.195312 272.769531 131.277344 272.816406 C 131.355469 272.867188 131.449219 272.882812 131.542969 272.859375 C 131.632812 272.835938 131.71875 272.777344 131.765625 272.695312 C 131.816406 272.617188 131.832031 272.523438 131.804688 272.421875 C 131.785156 272.328125 131.726562 272.253906 131.648438 272.207031 C 131.484375 272.109375 131.253906 272.164062 131.15625 272.324219 "/>
</g>
</g>
</g>
<g clip-path="url(#clip39)" clip-rule="nonzero">
<g clip-path="url(#clip40)" clip-rule="nonzero">
<g clip-path="url(#clip41)" clip-rule="nonzero">
<path style=" stroke:none;fill-rule:nonzero;fill:rgb(100%,50.979614%,34.509277%);fill-opacity:1;" d="M 124.761719 271.480469 C 124.683594 271.609375 124.65625 271.757812 124.691406 271.90625 C 124.734375 272.074219 124.824219 272.191406 124.953125 272.269531 C 125.085938 272.351562 125.234375 272.375 125.378906 272.339844 C 125.53125 272.300781 125.664062 272.207031 125.742188 272.078125 C 125.820312 271.949219 125.847656 271.800781 125.804688 271.636719 C 125.769531 271.488281 125.675781 271.367188 125.550781 271.289062 C 125.289062 271.128906 124.917969 271.222656 124.761719 271.480469 "/>
</g>
</g>
</g>
<g clip-path="url(#clip42)" clip-rule="nonzero">
<g clip-path="url(#clip43)" clip-rule="nonzero">
<g clip-path="url(#clip44)" clip-rule="nonzero">
<path style=" stroke:none;fill-rule:nonzero;fill:rgb(100%,50.979614%,34.509277%);fill-opacity:1;" d="M 121.179688 267.46875 C 121.105469 267.589844 121.082031 267.726562 121.113281 267.863281 C 121.152344 268.019531 121.238281 268.128906 121.359375 268.199219 C 121.476562 268.273438 121.617188 268.296875 121.753906 268.265625 C 121.890625 268.230469 122.015625 268.144531 122.089844 268.023438 C 122.160156 267.902344 122.183594 267.765625 122.148438 267.613281 C 122.113281 267.476562 122.027344 267.363281 121.910156 267.289062 C 121.667969 267.144531 121.324219 267.230469 121.179688 267.46875 "/>
</g>
</g>
</g>
<g clip-path="url(#clip45)" clip-rule="nonzero">
<g clip-path="url(#clip46)" clip-rule="nonzero">
<g clip-path="url(#clip47)" clip-rule="nonzero">
<path style=" stroke:none;fill-rule:nonzero;fill:rgb(100%,50.979614%,34.509277%);fill-opacity:1;" d="M 126.214844 271.019531 C 126.171875 271.097656 126.15625 271.183594 126.175781 271.269531 C 126.199219 271.363281 126.253906 271.433594 126.328125 271.480469 C 126.402344 271.523438 126.488281 271.542969 126.574219 271.519531 C 126.660156 271.5 126.738281 271.441406 126.785156 271.367188 C 126.832031 271.292969 126.847656 271.207031 126.824219 271.109375 C 126.800781 271.023438 126.746094 270.953125 126.675781 270.910156 C 126.523438 270.816406 126.308594 270.871094 126.214844 271.019531 "/>
</g>
</g>
</g>
<g clip-path="url(#clip48)" clip-rule="nonzero">
<g clip-path="url(#clip49)" clip-rule="nonzero">
<g clip-path="url(#clip50)" clip-rule="nonzero">
<path style=" stroke:none;fill-rule:nonzero;fill:rgb(100%,50.979614%,34.509277%);fill-opacity:1;" d="M 128.050781 269.949219 C 127.96875 270.085938 127.941406 270.234375 127.980469 270.386719 C 128.019531 270.554688 128.113281 270.679688 128.25 270.757812 C 128.378906 270.839844 128.53125 270.867188 128.683594 270.832031 C 128.835938 270.792969 128.972656 270.695312 129.054688 270.5625 C 129.132812 270.429688 129.160156 270.277344 129.121094 270.109375 C 129.082031 269.957031 128.988281 269.835938 128.855469 269.753906 C 128.589844 269.589844 128.210938 269.683594 128.050781 269.949219 "/>
</g>
</g>
</g>
<g clip-path="url(#clip51)" clip-rule="nonzero">
<g clip-path="url(#clip52)" clip-rule="nonzero">
<g clip-path="url(#clip53)" clip-rule="nonzero">
<path style=" stroke:none;fill-rule:nonzero;fill:rgb(100%,50.979614%,34.509277%);fill-opacity:1;" d="M 135.34375 270.261719 C 135.277344 270.367188 135.253906 270.492188 135.285156 270.613281 C 135.320312 270.753906 135.394531 270.851562 135.503906 270.914062 C 135.609375 270.984375 135.734375 271.003906 135.859375 270.972656 C 135.980469 270.945312 136.09375 270.863281 136.15625 270.753906 C 136.222656 270.648438 136.246094 270.527344 136.210938 270.386719 C 136.179688 270.265625 136.105469 270.164062 135.996094 270.101562 C 135.78125 269.96875 135.472656 270.042969 135.34375 270.261719 "/>
</g>
</g>
</g>
<g clip-path="url(#clip54)" clip-rule="nonzero">
<g clip-path="url(#clip55)" clip-rule="nonzero">
<g clip-path="url(#clip56)" clip-rule="nonzero">
<path style=" stroke:none;fill-rule:nonzero;fill:rgb(100%,50.979614%,34.509277%);fill-opacity:1;" d="M 130.484375 266.792969 C 130.410156 266.917969 130.382812 267.058594 130.417969 267.199219 C 130.457031 267.359375 130.542969 267.472656 130.667969 267.550781 C 130.792969 267.625 130.933594 267.652344 131.078125 267.617188 C 131.21875 267.582031 131.347656 267.492188 131.421875 267.363281 C 131.496094 267.242188 131.523438 267.101562 131.484375 266.941406 C 131.449219 266.796875 131.363281 266.683594 131.238281 266.609375 C 130.988281 266.457031 130.632812 266.542969 130.484375 266.792969 "/>
</g>
</g>
</g>
<g clip-path="url(#clip57)" clip-rule="nonzero">
<g clip-path="url(#clip58)" clip-rule="nonzero">
<g clip-path="url(#clip59)" clip-rule="nonzero">
<path style=" stroke:none;fill-rule:nonzero;fill:rgb(100%,50.979614%,34.509277%);fill-opacity:1;" d="M 116.402344 268.050781 C 116.351562 268.132812 116.332031 268.230469 116.355469 268.324219 C 116.382812 268.429688 116.441406 268.507812 116.527344 268.554688 C 116.609375 268.609375 116.703125 268.625 116.800781 268.601562 C 116.894531 268.578125 116.980469 268.515625 117.03125 268.433594 C 117.082031 268.351562 117.097656 268.257812 117.070312 268.148438 C 117.050781 268.054688 116.988281 267.976562 116.910156 267.925781 C 116.742188 267.824219 116.503906 267.882812 116.402344 268.050781 "/>
</g>
</g>
</g>
<g clip-path="url(#clip60)" clip-rule="nonzero">
<g clip-path="url(#clip61)" clip-rule="nonzero">
<g clip-path="url(#clip62)" clip-rule="nonzero">
<path style=" stroke:none;fill-rule:nonzero;fill:rgb(100%,50.979614%,34.509277%);fill-opacity:1;" d="M 213.472656 245.65625 C 213.4375 245.710938 213.421875 245.78125 213.441406 245.847656 C 213.457031 245.921875 213.5 245.976562 213.558594 246.011719 C 213.617188 246.046875 213.683594 246.058594 213.75 246.042969 C 213.816406 246.027344 213.878906 245.984375 213.914062 245.921875 C 213.949219 245.867188 213.960938 245.800781 213.941406 245.722656 C 213.925781 245.65625 213.886719 245.601562 213.828125 245.570312 C 213.710938 245.496094 213.542969 245.539062 213.472656 245.65625 "/>
</g>
</g>
</g>
<g clip-path="url(#clip63)" clip-rule="nonzero">
<g clip-path="url(#clip64)" clip-rule="nonzero">
<g clip-path="url(#clip65)" clip-rule="nonzero">
<path style=" stroke:none;fill-rule:nonzero;fill:rgb(100%,50.979614%,34.509277%);fill-opacity:1;" d="M 208.878906 249.625 C 208.804688 249.746094 208.78125 249.886719 208.816406 250.027344 C 208.855469 250.183594 208.941406 250.296875 209.0625 250.367188 C 209.183594 250.445312 209.324219 250.46875 209.460938 250.433594 C 209.605469 250.398438 209.730469 250.3125 209.804688 250.1875 C 209.878906 250.066406 209.902344 249.925781 209.863281 249.769531 C 209.832031 249.632812 209.742188 249.519531 209.621094 249.445312 C 209.378906 249.296875 209.027344 249.382812 208.878906 249.625 "/>
</g>
</g>
</g>
<g clip-path="url(#clip66)" clip-rule="nonzero">
<g clip-path="url(#clip67)" clip-rule="nonzero">
<g clip-path="url(#clip68)" clip-rule="nonzero">
<path style=" stroke:none;fill-rule:nonzero;fill:rgb(100%,50.979614%,34.509277%);fill-opacity:1;" d="M 203.394531 251.894531 C 203.324219 252.007812 203.304688 252.140625 203.335938 252.269531 C 203.371094 252.414062 203.449219 252.515625 203.5625 252.582031 C 203.675781 252.652344 203.804688 252.675781 203.933594 252.644531 C 204.0625 252.613281 204.179688 252.53125 204.246094 252.414062 C 204.316406 252.304688 204.339844 252.175781 204.304688 252.03125 C 204.273438 251.902344 204.191406 251.796875 204.078125 251.730469 C 203.855469 251.589844 203.53125 251.671875 203.394531 251.894531 "/>
</g>
</g>
</g>
<g clip-path="url(#clip69)" clip-rule="nonzero">
<g clip-path="url(#clip70)" clip-rule="nonzero">
<g clip-path="url(#clip71)" clip-rule="nonzero">
<path style=" stroke:none;fill-rule:nonzero;fill:rgb(100%,50.979614%,34.509277%);fill-opacity:1;" d="M 198.1875 253.132812 C 198.152344 252.984375 198.058594 252.867188 197.933594 252.785156 C 197.675781 252.632812 197.304688 252.722656 197.152344 252.976562 C 197.074219 253.105469 197.046875 253.253906 197.082031 253.402344 C 197.121094 253.566406 197.214844 253.683594 197.34375 253.761719 C 197.472656 253.839844 197.617188 253.867188 197.765625 253.832031 C 197.914062 253.796875 198.046875 253.699219 198.125 253.570312 C 198.199219 253.445312 198.226562 253.296875 198.1875 253.132812 "/>
</g>
</g>
</g>
<g clip-path="url(#clip72)" clip-rule="nonzero">
<g clip-path="url(#clip73)" clip-rule="nonzero">
<g clip-path="url(#clip74)" clip-rule="nonzero">
<path style=" stroke:none;fill-rule:nonzero;fill:rgb(100%,50.979614%,34.509277%);fill-opacity:1;" d="M 193.4375 258.296875 C 193.378906 258.398438 193.355469 258.511719 193.386719 258.628906 C 193.417969 258.757812 193.488281 258.847656 193.589844 258.910156 C 193.6875 258.972656 193.804688 258.992188 193.917969 258.964844 C 194.035156 258.9375 194.136719 258.859375 194.199219 258.761719 C 194.257812 258.660156 194.28125 258.546875 194.25 258.417969 C 194.222656 258.300781 194.148438 258.210938 194.050781 258.148438 C 193.847656 258.027344 193.558594 258.097656 193.4375 258.296875 "/>
</g>
</g>
</g>
<g clip-path="url(#clip75)" clip-rule="nonzero">
<g clip-path="url(#clip76)" clip-rule="nonzero">
<g clip-path="url(#clip77)" clip-rule="nonzero">
<path style=" stroke:none;fill-rule:nonzero;fill:rgb(100%,50.979614%,34.509277%);fill-opacity:1;" d="M 188.164062 261.613281 C 188.085938 261.746094 188.058594 261.898438 188.09375 262.046875 C 188.136719 262.21875 188.230469 262.339844 188.359375 262.417969 C 188.492188 262.5 188.644531 262.527344 188.792969 262.488281 C 188.945312 262.453125 189.082031 262.355469 189.164062 262.222656 C 189.242188 262.089844 189.269531 261.941406 189.226562 261.773438 C 189.191406 261.621094 189.097656 261.5 188.964844 261.417969 C 188.699219 261.257812 188.324219 261.351562 188.164062 261.613281 "/>
</g>
</g>
</g>
<g clip-path="url(#clip78)" clip-rule="nonzero">
<g clip-path="url(#clip79)" clip-rule="nonzero">
<g clip-path="url(#clip80)" clip-rule="nonzero">
<path style=" stroke:none;fill-rule:nonzero;fill:rgb(100%,50.979614%,34.509277%);fill-opacity:1;" d="M 208.59375 252.203125 C 208.539062 252.289062 208.523438 252.386719 208.546875 252.484375 C 208.574219 252.59375 208.632812 252.671875 208.722656 252.722656 C 208.804688 252.777344 208.90625 252.792969 209.003906 252.769531 C 209.101562 252.746094 209.191406 252.683594 209.242188 252.597656 C 209.292969 252.511719 209.3125 252.414062 209.285156 252.304688 C 209.261719 252.207031 209.199219 252.125 209.113281 252.074219 C 208.941406 251.96875 208.695312 252.03125 208.59375 252.203125 "/>
</g>
</g>
</g>
<g clip-path="url(#clip81)" clip-rule="nonzero">
<g clip-path="url(#clip82)" clip-rule="nonzero">
<g clip-path="url(#clip83)" clip-rule="nonzero">
<path style=" stroke:none;fill-rule:nonzero;fill:rgb(100%,50.979614%,34.509277%);fill-opacity:1;" d="M 212.542969 248.84375 C 212.507812 248.90625 212.492188 248.980469 212.507812 249.054688 C 212.53125 249.136719 212.574219 249.195312 212.636719 249.230469 C 212.703125 249.269531 212.773438 249.285156 212.847656 249.265625 C 212.921875 249.25 212.984375 249.203125 213.023438 249.136719 C 213.0625 249.074219 213.074219 249 213.054688 248.921875 C 213.039062 248.847656 212.992188 248.789062 212.929688 248.75 C 212.800781 248.671875 212.621094 248.71875 212.542969 248.84375 "/>
</g>
</g>
</g>
<g clip-path="url(#clip84)" clip-rule="nonzero">
<g clip-path="url(#clip85)" clip-rule="nonzero">
<g clip-path="url(#clip86)" clip-rule="nonzero">
<path style=" stroke:none;fill-rule:nonzero;fill:rgb(100%,50.979614%,34.509277%);fill-opacity:1;" d="M 216.746094 247.492188 C 216.699219 247.5625 216.6875 247.648438 216.707031 247.730469 C 216.730469 247.828125 216.78125 247.894531 216.855469 247.9375 C 216.929688 247.984375 217.011719 247.996094 217.097656 247.976562 C 217.179688 247.957031 217.253906 247.902344 217.300781 247.828125 C 217.34375 247.753906 217.359375 247.671875 217.335938 247.578125 C 217.316406 247.496094 217.261719 247.425781 217.191406 247.382812 C 217.042969 247.292969 216.835938 247.34375 216.746094 247.492188 "/>
</g>
</g>
</g>
<g clip-path="url(#clip87)" clip-rule="nonzero">
<g clip-path="url(#clip88)" clip-rule="nonzero">
<g clip-path="url(#clip89)" clip-rule="nonzero">
<path style=" stroke:none;fill-rule:nonzero;fill:rgb(100%,50.979614%,34.509277%);fill-opacity:1;" d="M 216.875 245.015625 C 216.804688 245.128906 216.78125 245.261719 216.8125 245.394531 C 216.847656 245.542969 216.929688 245.648438 217.042969 245.714844 C 217.160156 245.789062 217.292969 245.808594 217.425781 245.777344 C 217.554688 245.746094 217.675781 245.660156 217.746094 245.542969 C 217.8125 245.429688 217.835938 245.300781 217.800781 245.152344 C 217.769531 245.019531 217.6875 244.914062 217.574219 244.84375 C 217.339844 244.703125 217.011719 244.785156 216.875 245.015625 "/>
</g>
</g>
</g>
<g clip-path="url(#clip90)" clip-rule="nonzero">
<g clip-path="url(#clip91)" clip-rule="nonzero">
<g clip-path="url(#clip92)" clip-rule="nonzero">
<path style=" stroke:none;fill-rule:nonzero;fill:rgb(100%,50.979614%,34.509277%);fill-opacity:1;" d="M 201.09375 256.609375 C 201.054688 256.671875 201.042969 256.742188 201.058594 256.8125 C 201.078125 256.886719 201.121094 256.945312 201.183594 256.980469 C 201.246094 257.019531 201.3125 257.03125 201.382812 257.015625 C 201.453125 256.996094 201.515625 256.953125 201.554688 256.890625 C 201.589844 256.832031 201.605469 256.761719 201.585938 256.683594 C 201.566406 256.613281 201.523438 256.558594 201.460938 256.519531 C 201.339844 256.445312 201.164062 256.488281 201.09375 256.609375 "/>
</g>
</g>
</g>
<g clip-path="url(#clip93)" clip-rule="nonzero">
<g clip-path="url(#clip94)" clip-rule="nonzero">
<g clip-path="url(#clip95)" clip-rule="nonzero">
<path style=" stroke:none;fill-rule:nonzero;fill:rgb(100%,50.979614%,34.509277%);fill-opacity:1;" d="M 198.914062 257.554688 C 198.855469 257.648438 198.839844 257.753906 198.863281 257.859375 C 198.894531 257.976562 198.957031 258.0625 199.050781 258.117188 C 199.144531 258.175781 199.25 258.195312 199.355469 258.167969 C 199.460938 258.140625 199.554688 258.074219 199.613281 257.980469 C 199.667969 257.890625 199.6875 257.785156 199.65625 257.664062 C 199.632812 257.5625 199.566406 257.476562 199.472656 257.417969 C 199.289062 257.308594 199.027344 257.371094 198.914062 257.554688 "/>
</g>
</g>
</g>
<g clip-path="url(#clip96)" clip-rule="nonzero">
<g clip-path="url(#clip97)" clip-rule="nonzero">
<g clip-path="url(#clip98)" clip-rule="nonzero">
<path style=" stroke:none;fill-rule:nonzero;fill:rgb(100%,78.42865%,47.059631%);fill-opacity:1;" d="M 164.714844 251.855469 C 117.964844 262.878906 123.976562 195.230469 148.085938 173.96875 C 151.101562 198.84375 190.449219 217.273438 179.804688 239.082031 C 176.96875 244.882812 172.917969 249.921875 164.714844 251.855469 "/>
</g>
</g>
</g>
<g clip-path="url(#clip99)" clip-rule="nonzero">
<g clip-path="url(#clip100)" clip-rule="nonzero">
<g clip-path="url(#clip101)" clip-rule="nonzero">
<path style=" stroke:none;fill-rule:nonzero;fill:rgb(94.509888%,36.468506%,40.388489%);fill-opacity:1;" d="M 186.007812 170.316406 C 188.375 180.21875 178.75 191.792969 176.203125 183.011719 C 173.910156 175.125 193.1875 121.65625 131.359375 105.078125 C 158.6875 132.351562 101.902344 169.304688 108.394531 214.21875 C 110.957031 231.9375 121.25 249.285156 140.914062 253.9375 C 87.640625 217.609375 148.722656 156.65625 150.5 153.132812 C 148.480469 186.777344 216.667969 212.191406 181.527344 247.832031 C 209.054688 233.710938 217.800781 202.070312 186.007812 170.316406 "/>
</g>
</g>
</g>
</g>
</svg>
